# xmcd
#
# Track frame offsets:
# 150
# 12648
# 23479
# 38906
# 53306
# 68402
# 79905
# 93786
# 106202
# 122540
# 132836
# 147767
# 159877
# 174501
# 184354
# 195890
# 209681
# 221448
# 236289
# 249788
# 260662
# 270929
# 283850
# 296278
# 311429
#
# Disc length: 4378 seconds
#
#
# Revision: 2
# Processed by: cddbd v1.5.2PL0 Copyright (c) Steve Scherf et al.
# Submitted via: FreeRIP 2.945 
#
DISCID=47111819
DTITLE=Varios - Meio século de música sertaneja
DYEAR=1900
DGENRE=Country
TTITLE0=Pingo d'agua.
TTITLE1=Pombinha Mensageira
TTITLE2=Mais uma lição
TTITLE3=Disco Voador
TTITLE4=Viola Cabocla
TTITLE5=Noite fria
TTITLE6=Chalana
TTITLE7=Conselho de amigo
TTITLE8=Meu velho pai
TTITLE9=Tchau, amor
TTITLE10=No Colo da Noite
TTITLE11=João de Barro
TTITLE12=A moda da mula preta
TTITLE13=Amanheci e teus braços
TTITLE14=O Menino e o Circo
TTITLE15=Canoeiro
TTITLE16=Paraná do norte
TTITLE17=Abra a porta mariquinha
TTITLE18=Meu Passarinho
TTITLE19=Cantando
TTITLE20=Meu Irmão da Roça
TTITLE21=Lágrimas da Alma
TTITLE22=Rio de lágrimas
TTITLE23=Caminheiro
TTITLE24=Couro de Boi
EXTD=
EXTT0=
EXTT1=
EXTT2=
EXTT3=
EXTT4=
EXTT5=
EXTT6=
EXTT7=
EXTT8=
EXTT9=
EXTT10=
EXTT11=
EXTT12=
EXTT13=
EXTT14=
EXTT15=
EXTT16=
EXTT17=
EXTT18=
EXTT19=
EXTT20=
EXTT21=
EXTT22=
EXTT23=
EXTT24=
PLAYORDER=
